<svg width="206" height="205" viewBox="0 0 206 205" fill="none" xmlns="http://www.w3.org/2000/svg">
<path fill-rule="evenodd" clip-rule="evenodd" d="M104.57 204.49L205.45 103.6C205.746 103.3 205.912 102.896 205.912 102.475C205.912 102.054 205.746 101.65 205.45 101.35L104.57 0.459991C104.422 0.312136 104.247 0.194844 104.054 0.114815C103.861 0.0347859 103.654 -0.00640869 103.445 -0.00640869C103.236 -0.00640869 103.029 0.0347859 102.836 0.114815C102.643 0.194844 102.468 0.312136 102.32 0.459991L1.42001 101.35C1.27216 101.498 1.15486 101.673 1.07483 101.866C0.9948 102.059 0.953613 102.266 0.953613 102.475C0.953613 102.684 0.9948 102.891 1.07483 103.084C1.15486 103.277 1.27216 103.452 1.42001 103.6L102.31 204.49C102.611 204.784 103.015 204.948 103.435 204.948C103.855 204.948 104.259 204.784 104.56 204.49H104.57ZM80.85 66.89L101.57 100.02L122.29 66.89L130.74 72.15L105.8 112.05L101.57 118.82L97.34 112.05L72.41 72.15L80.86 66.89H80.85ZM96.03 52.33L101.57 63.4L107.11 52.33L115.99 56.78L105.99 76.78L101.57 85.61L97.11 76.7L87.11 56.7L95.99 52.25L96.03 52.33ZM27.92 111.23L52.86 81.3L56.86 76.48L60.63 81.48L101.57 136.05L142.47 81.5L146.24 76.5L150.24 81.32L175.18 111.25L167.57 117.58L146.66 92.49L105.57 147.31L101.57 152.61L97.57 147.31L56.45 92.49L35.57 117.58L27.92 111.23Z" fill="black"/>
</svg>
