<svg width="21" height="20" viewBox="0 0 21 20" fill="none" xmlns="http://www.w3.org/2000/svg">
<path d="M7.14287 20C7.93184 20 8.57144 19.3604 8.57144 18.5714C8.57144 17.7824 7.93184 17.1428 7.14287 17.1428C6.35389 17.1428 5.71429 17.7824 5.71429 18.5714C5.71429 19.3604 6.35389 20 7.14287 20Z" fill="black"/>
<path d="M17.1429 20C17.9318 20 18.5714 19.3604 18.5714 18.5714C18.5714 17.7824 17.9318 17.1428 17.1429 17.1428C16.3539 17.1428 15.7143 17.7824 15.7143 18.5714C15.7143 19.3604 16.3539 20 17.1429 20Z" fill="black"/>
<path d="M3.55714 0.574286C3.52479 0.412421 3.43737 0.266758 3.30976 0.162062C3.18215 0.0573658 3.02221 9.96886e-05 2.85714 0H0V1.42857H2.27143L5.01429 15.14C5.04664 15.3019 5.13405 15.4475 5.26167 15.5522C5.38928 15.6569 5.54922 15.7142 5.71429 15.7143H18.5714V14.2857H6.3L5.72857 11.4286H18.5714C18.7339 11.4285 18.8915 11.3731 19.0183 11.2714C19.145 11.1698 19.2333 11.0279 19.2686 10.8693L20.8886 3.57143H19.4264L17.9986 10H5.44286L3.55714 0.574286Z" fill="black"/>
<path d="M15.4185 3.27571L12.8571 5.83714V0H11.4285V5.83714L8.86712 3.27571L7.85712 4.28571L12.1428 8.57143L16.4285 4.28571L15.4185 3.27571Z" fill="black"/>
</svg>
