<svg width="38" height="34" viewBox="0 0 38 34" fill="none" xmlns="http://www.w3.org/2000/svg">
<path d="M35.9242 24.1039H11.0978L12.3444 21.5371L33.0559 21.4992C33.7563 21.4992 34.3566 20.9934 34.4817 20.2938L37.35 4.06297C37.425 3.63729 37.3125 3.19896 37.0373 2.866C36.9013 2.70213 36.7317 2.57013 36.5402 2.47916C36.3487 2.38819 36.1399 2.34042 35.9283 2.33916L9.58034 2.25065L9.35521 1.18012C9.21347 0.497335 8.60479 0 7.91274 0H1.47165C1.08135 0 0.707026 0.156749 0.431037 0.435763C0.155049 0.714778 0 1.0932 0 1.48779C0 1.88238 0.155049 2.2608 0.431037 2.53982C0.707026 2.81883 1.08135 2.97558 1.47165 2.97558H6.72041L7.70429 7.70447L10.1265 19.5604L7.00807 24.7066C6.84613 24.9276 6.74859 25.1899 6.72648 25.464C6.70438 25.7381 6.7586 26.013 6.883 26.2576C7.13314 26.7591 7.63759 27.0752 8.19623 27.0752H10.8144C10.2562 27.8247 9.95473 28.7376 9.95555 29.6757C9.95555 32.0612 11.8733 34 14.2329 34C16.5926 34 18.5103 32.0612 18.5103 29.6757C18.5103 28.7358 18.2018 27.8212 17.6515 27.0752H24.3677C23.8096 27.8247 23.5081 28.7376 23.5089 29.6757C23.5089 32.0612 25.4267 34 27.7863 34C30.146 34 32.0637 32.0612 32.0637 29.6757C32.0637 28.7358 31.7552 27.8212 31.2049 27.0752H35.9283C36.7371 27.0752 37.4 26.4093 37.4 25.5875C37.3976 25.1933 37.2411 24.8161 36.9646 24.5381C36.6881 24.2602 36.3141 24.1041 35.9242 24.1039ZM10.1932 5.18408L34.1982 5.26416L31.8469 18.5742L12.9906 18.6079L10.1932 5.18408ZM14.2329 31.0076C13.5075 31.0076 12.9155 30.4091 12.9155 29.6757C12.9155 28.9424 13.5075 28.3439 14.2329 28.3439C14.9583 28.3439 15.5503 28.9424 15.5503 29.6757C15.5503 30.0289 15.4115 30.3677 15.1645 30.6175C14.9174 30.8672 14.5823 31.0076 14.2329 31.0076ZM27.7863 31.0076C27.0609 31.0076 26.4689 30.4091 26.4689 29.6757C26.4689 28.9424 27.0609 28.3439 27.7863 28.3439C28.5117 28.3439 29.1037 28.9424 29.1037 29.6757C29.1037 30.0289 28.9649 30.3677 28.7179 30.6175C28.4708 30.8672 28.1357 31.0076 27.7863 31.0076Z" fill="black"/>
</svg>
