<svg width="29" height="32" viewBox="0 0 29 32" fill="none" xmlns="http://www.w3.org/2000/svg">
<path d="M0.434439 14.5196L15.3201 0.170664C15.4343 0.0612638 15.5801 0 15.7338 0H19.2207C19.5123 0 19.6463 0.402593 19.4256 0.612641L5.62746 13.9157H28.6848C28.8582 13.9157 29 14.0732 29 14.2658V16.8914C29 17.0839 28.8582 17.2415 28.6848 17.2415H5.6314L19.4296 30.5445C19.6502 30.7589 19.5162 31.1572 19.2247 31.1572H15.6195C15.5446 31.1572 15.4698 31.1265 15.4146 31.0696L0.434439 16.6376C0.298038 16.5058 0.188673 16.3431 0.113728 16.1604C0.0387821 15.9778 0 15.7793 0 15.5786C0 15.3778 0.0387821 15.1794 0.113728 14.9967C0.188673 14.814 0.298038 14.6513 0.434439 14.5196Z" fill="black"/>
</svg>
