<svg width="186" height="195" viewBox="0 0 186 195" fill="none" xmlns="http://www.w3.org/2000/svg">
<path d="M33.5534 163.706H39.7006C39.3804 166.652 38.5373 169.288 37.1713 171.614C35.8052 173.941 33.8736 175.787 31.3763 177.153C28.879 178.498 25.7627 179.17 22.0274 179.17C19.2953 179.17 16.8087 178.658 14.5676 177.634C12.3477 176.609 10.4374 175.158 8.83658 173.279C7.23575 171.38 5.99778 169.106 5.12266 166.46C4.26888 163.792 3.84199 160.825 3.84199 157.559V152.917C3.84199 149.651 4.26888 146.695 5.12266 144.048C5.99778 141.38 7.24642 139.096 8.8686 137.197C10.5121 135.297 12.4865 133.835 14.7917 132.81C17.0969 131.786 19.6902 131.273 22.5717 131.273C26.0935 131.273 29.0711 131.935 31.5043 133.259C33.9376 134.582 35.8266 136.417 37.1713 138.765C38.5373 141.092 39.3804 143.792 39.7006 146.866H33.5534C33.2546 144.688 32.6996 142.821 31.8885 141.263C31.0774 139.683 29.9249 138.467 28.4307 137.613C26.9366 136.759 24.9836 136.332 22.5717 136.332C20.5013 136.332 18.6764 136.727 17.0969 137.517C15.5387 138.306 14.226 139.427 13.1588 140.878C12.1129 142.33 11.3232 144.069 10.7896 146.097C10.256 148.125 9.98918 150.377 9.98918 152.853V157.559C9.98918 159.843 10.224 161.988 10.6935 163.994C11.1845 166.001 11.9208 167.762 12.9027 169.277C13.8845 170.793 15.1332 171.988 16.6486 172.863C18.1641 173.717 19.957 174.144 22.0274 174.144C24.6528 174.144 26.7445 173.728 28.3027 172.895C29.8608 172.063 31.0348 170.867 31.8245 169.309C32.6356 167.751 33.2119 165.883 33.5534 163.706ZM65.3779 136.044L49.9459 178.53H43.6386L61.4078 131.914H65.474L65.3779 136.044ZM78.3126 178.53L62.8486 136.044L62.7525 131.914H66.8186L84.6519 178.53H78.3126ZM77.5122 161.273V166.332H51.3226V161.273H77.5122ZM126.754 131.914V178.53H120.543L97.0743 142.575V178.53H90.8951V131.914H97.0743L120.639 167.965V131.914H126.754ZM116.092 120.036L120.094 120.388C120.094 121.946 119.785 123.312 119.166 124.486C118.547 125.66 117.714 126.567 116.668 127.207C115.644 127.848 114.481 128.168 113.179 128.168C112.09 128.168 111.194 128.018 110.489 127.72C109.785 127.399 109.155 127.047 108.6 126.663C108.045 126.258 107.458 125.905 106.839 125.607C106.242 125.286 105.495 125.126 104.598 125.126C103.702 125.126 102.944 125.468 102.325 126.151C101.727 126.834 101.429 127.677 101.429 128.68L97.4265 128.488C97.4265 126.93 97.7253 125.564 98.323 124.39C98.942 123.195 99.7744 122.266 100.82 121.604C101.866 120.921 103.029 120.58 104.31 120.58C105.228 120.58 106.028 120.74 106.711 121.06C107.416 121.359 108.077 121.711 108.696 122.117C109.315 122.501 109.956 122.853 110.617 123.173C111.279 123.472 112.037 123.622 112.891 123.622C113.787 123.622 114.545 123.28 115.164 122.597C115.783 121.893 116.092 121.039 116.092 120.036ZM155.537 136.044L140.105 178.53H133.797L151.567 131.914H155.633L155.537 136.044ZM168.471 178.53L153.007 136.044L152.911 131.914H156.977L174.811 178.53H168.471ZM167.671 161.273V166.332H141.481V161.273H167.671Z" fill="#282829"/>
<path fill-rule="evenodd" clip-rule="evenodd" d="M67.99 18.24L93.72 59.41L119.45 18.24L129.95 24.78L98.97 74.34L93.72 82.75L88.47 74.34L57.49 24.78L67.99 18.24Z" fill="#282829"/>
<path fill-rule="evenodd" clip-rule="evenodd" d="M86.8401 0.160004L93.7201 13.91L100.59 0.160004L111.63 5.68L99.2401 30.47L93.7201 41.5L88.2001 30.47L75.8101 5.68L86.8401 0.160004Z" fill="#282829"/>
<path fill-rule="evenodd" clip-rule="evenodd" d="M2.22998 73.33L33.21 36.15L38.21 30.15L42.89 36.4L93.72 104.16L144.54 36.4L149.23 30.15L154.23 36.15L185.21 73.33L175.72 81.22L149.74 50.04L98.66 118.15L93.72 124.74L88.78 118.15L37.7 50.04L11.72 81.22L2.22998 73.33Z" fill="#282829"/>
</svg>
