<svg width="186" height="195" viewBox="0 0 186 195" fill="none" xmlns="http://www.w3.org/2000/svg">
<path d="M33.5534 164.166H39.7006C39.3804 167.112 38.5373 169.748 37.1713 172.074C35.8052 174.401 33.8736 176.247 31.3763 177.613C28.879 178.958 25.7627 179.63 22.0274 179.63C19.2953 179.63 16.8087 179.118 14.5676 178.094C12.3477 177.069 10.4374 175.618 8.83658 173.739C7.23575 171.84 5.99778 169.566 5.12266 166.92C4.26888 164.252 3.84199 161.285 3.84199 158.019V153.377C3.84199 150.111 4.26888 147.155 5.12266 144.508C5.99778 141.84 7.24642 139.556 8.8686 137.657C10.5121 135.757 12.4865 134.295 14.7917 133.27C17.0969 132.246 19.6902 131.733 22.5717 131.733C26.0935 131.733 29.0711 132.395 31.5043 133.719C33.9376 135.042 35.8266 136.877 37.1713 139.225C38.5373 141.552 39.3804 144.252 39.7006 147.326H33.5534C33.2546 145.148 32.6996 143.281 31.8885 141.723C31.0774 140.143 29.9249 138.927 28.4307 138.073C26.9366 137.219 24.9836 136.792 22.5717 136.792C20.5013 136.792 18.6764 137.187 17.0969 137.977C15.5387 138.766 14.226 139.887 13.1588 141.338C12.1129 142.79 11.3232 144.529 10.7896 146.557C10.256 148.585 9.98918 150.837 9.98918 153.313V158.019C9.98918 160.303 10.224 162.448 10.6935 164.454C11.1845 166.461 11.9208 168.222 12.9027 169.737C13.8845 171.253 15.1332 172.448 16.6486 173.323C18.1641 174.177 19.957 174.604 22.0274 174.604C24.6528 174.604 26.7445 174.188 28.3027 173.355C29.8608 172.523 31.0348 171.327 31.8245 169.769C32.6356 168.211 33.2119 166.343 33.5534 164.166ZM65.3779 136.504L49.9459 178.99H43.6386L61.4078 132.374H65.474L65.3779 136.504ZM78.3126 178.99L62.8486 136.504L62.7525 132.374H66.8186L84.6519 178.99H78.3126ZM77.5122 161.733V166.792H51.3226V161.733H77.5122ZM126.754 132.374V178.99H120.543L97.0743 143.035V178.99H90.8951V132.374H97.0743L120.639 168.425V132.374H126.754ZM116.092 120.496L120.094 120.848C120.094 122.406 119.785 123.772 119.166 124.946C118.547 126.12 117.714 127.027 116.668 127.667C115.644 128.308 114.481 128.628 113.179 128.628C112.09 128.628 111.194 128.478 110.489 128.18C109.785 127.859 109.155 127.507 108.6 127.123C108.045 126.718 107.458 126.365 106.839 126.067C106.242 125.746 105.495 125.586 104.598 125.586C103.702 125.586 102.944 125.928 102.325 126.611C101.727 127.294 101.429 128.137 101.429 129.14L97.4265 128.948C97.4265 127.39 97.7253 126.024 98.323 124.85C98.942 123.655 99.7744 122.726 100.82 122.064C101.866 121.381 103.029 121.04 104.31 121.04C105.228 121.04 106.028 121.2 106.711 121.52C107.416 121.819 108.077 122.171 108.696 122.577C109.315 122.961 109.956 123.313 110.617 123.633C111.279 123.932 112.037 124.082 112.891 124.082C113.787 124.082 114.545 123.74 115.164 123.057C115.783 122.353 116.092 121.499 116.092 120.496ZM155.537 136.504L140.105 178.99H133.797L151.567 132.374H155.633L155.537 136.504ZM168.471 178.99L153.007 136.504L152.911 132.374H156.977L174.811 178.99H168.471ZM167.671 161.733V166.792H141.481V161.733H167.671Z" fill="#F5E4D4"/>
<path fill-rule="evenodd" clip-rule="evenodd" d="M67.99 18.69L93.72 59.86L119.45 18.69L129.95 25.23L98.97 74.8L93.72 83.2L88.47 74.8L57.49 25.23L67.99 18.69Z" fill="#F5E4D4"/>
<path fill-rule="evenodd" clip-rule="evenodd" d="M86.8401 0.619995L93.7201 14.36L100.59 0.619995L111.63 6.13L99.2401 30.92L93.7201 41.95L88.2001 30.92L75.8101 6.13L86.8401 0.619995Z" fill="#F5E4D4"/>
<path fill-rule="evenodd" clip-rule="evenodd" d="M2.22998 73.78L33.21 36.61L38.21 30.61L42.89 36.85L93.72 104.62L144.54 36.85L149.23 30.61L154.23 36.61L185.21 73.78L175.72 81.67L149.74 50.5L98.66 118.6L93.72 125.19L88.78 118.6L37.7 50.5L11.72 81.67L2.22998 73.78Z" fill="#F5E4D4"/>
</svg>
