<svg width="186" height="196" viewBox="0 0 186 196" fill="none" xmlns="http://www.w3.org/2000/svg">
<path d="M33.5534 164.266H39.7006C39.3804 167.212 38.5373 169.848 37.1713 172.174C35.8052 174.501 33.8736 176.347 31.3763 177.713C28.879 179.058 25.7627 179.73 22.0274 179.73C19.2953 179.73 16.8087 179.218 14.5676 178.194C12.3477 177.169 10.4374 175.718 8.83658 173.839C7.23575 171.94 5.99778 169.666 5.12266 167.02C4.26888 164.352 3.84199 161.385 3.84199 158.119V153.477C3.84199 150.211 4.26888 147.255 5.12266 144.608C5.99778 141.94 7.24642 139.656 8.8686 137.757C10.5121 135.857 12.4865 134.395 14.7917 133.37C17.0969 132.346 19.6902 131.833 22.5717 131.833C26.0935 131.833 29.0711 132.495 31.5043 133.819C33.9376 135.142 35.8266 136.977 37.1713 139.325C38.5373 141.652 39.3804 144.352 39.7006 147.426H33.5534C33.2546 145.248 32.6996 143.381 31.8885 141.823C31.0774 140.243 29.9249 139.027 28.4307 138.173C26.9366 137.319 24.9836 136.892 22.5717 136.892C20.5013 136.892 18.6764 137.287 17.0969 138.077C15.5387 138.866 14.226 139.987 13.1588 141.438C12.1129 142.89 11.3232 144.629 10.7896 146.657C10.256 148.685 9.98918 150.937 9.98918 153.413V158.119C9.98918 160.403 10.224 162.548 10.6935 164.554C11.1845 166.561 11.9208 168.322 12.9027 169.837C13.8845 171.353 15.1332 172.548 16.6486 173.423C18.1641 174.277 19.957 174.704 22.0274 174.704C24.6528 174.704 26.7445 174.288 28.3027 173.455C29.8608 172.623 31.0348 171.427 31.8245 169.869C32.6356 168.311 33.2119 166.443 33.5534 164.266ZM65.3779 136.604L49.9459 179.09H43.6386L61.4078 132.474H65.474L65.3779 136.604ZM78.3126 179.09L62.8486 136.604L62.7525 132.474H66.8186L84.6519 179.09H78.3126ZM77.5122 161.833V166.892H51.3226V161.833H77.5122ZM126.754 132.474V179.09H120.543L97.0743 143.135V179.09H90.8951V132.474H97.0743L120.639 168.525V132.474H126.754ZM116.092 120.596L120.094 120.948C120.094 122.506 119.785 123.872 119.166 125.046C118.547 126.22 117.714 127.127 116.668 127.767C115.644 128.408 114.481 128.728 113.179 128.728C112.09 128.728 111.194 128.578 110.489 128.28C109.785 127.959 109.155 127.607 108.6 127.223C108.045 126.818 107.458 126.465 106.839 126.167C106.242 125.846 105.495 125.686 104.598 125.686C103.702 125.686 102.944 126.028 102.325 126.711C101.727 127.394 101.429 128.237 101.429 129.24L97.4265 129.048C97.4265 127.49 97.7253 126.124 98.323 124.95C98.942 123.755 99.7744 122.826 100.82 122.164C101.866 121.481 103.029 121.14 104.31 121.14C105.228 121.14 106.028 121.3 106.711 121.62C107.416 121.919 108.077 122.271 108.696 122.677C109.315 123.061 109.956 123.413 110.617 123.733C111.279 124.032 112.037 124.182 112.891 124.182C113.787 124.182 114.545 123.84 115.164 123.157C115.783 122.453 116.092 121.599 116.092 120.596ZM155.537 136.604L140.105 179.09H133.797L151.567 132.474H155.633L155.537 136.604ZM168.471 179.09L153.007 136.604L152.911 132.474H156.977L174.811 179.09H168.471ZM167.671 161.833V166.892H141.481V161.833H167.671Z" fill="#E1B98C"/>
<path fill-rule="evenodd" clip-rule="evenodd" d="M67.99 18.8L93.72 59.96L119.45 18.8L129.95 25.33L98.97 74.9L93.72 83.3L88.47 74.9L57.49 25.33L67.99 18.8Z" fill="#E1B98C"/>
<path fill-rule="evenodd" clip-rule="evenodd" d="M86.8401 0.720001L93.7201 14.46L100.59 0.720001L111.63 6.23999L99.2401 31.02L93.7201 42.06L88.2001 31.02L75.8101 6.23999L86.8401 0.720001Z" fill="#E1B98C"/>
<path fill-rule="evenodd" clip-rule="evenodd" d="M2.22998 73.88L33.21 36.71L38.21 30.71L42.89 36.95L93.72 104.72L144.54 36.95L149.23 30.71L154.23 36.71L185.21 73.88L175.72 81.77L149.74 50.6L98.66 118.71L93.72 125.29L88.78 118.71L37.7 50.6L11.72 81.77L2.22998 73.88Z" fill="#E1B98C"/>
</svg>
