<svg width="29" height="32" viewBox="0 0 29 32" fill="none" xmlns="http://www.w3.org/2000/svg">
<path d="M28.5656 14.5196L13.6799 0.170664C13.5657 0.0612638 13.4199 0 13.2662 0H9.77927C9.48771 0 9.35374 0.402593 9.57439 0.612641L23.3725 13.9157H0.315206C0.141843 13.9157 0 14.0732 0 14.2658V16.8914C0 17.0839 0.141843 17.2415 0.315206 17.2415H23.3686L9.57045 30.5445C9.3498 30.7589 9.48377 31.1572 9.77533 31.1572H13.3805C13.4554 31.1572 13.5302 31.1265 13.5854 31.0696L28.5656 16.6376C28.702 16.5058 28.8113 16.3431 28.8863 16.1604C28.9612 15.9778 29 15.7793 29 15.5786C29 15.3778 28.9612 15.1794 28.8863 14.9967C28.8113 14.814 28.702 14.6513 28.5656 14.5196Z" fill="black"/>
</svg>
